# xmcd
#
# Track frame offsets:
#	150
#	14292
#	23282
#	35395
#	51945
#	62530
#	76262
#	85335
#	104377
#	116377
#	133702
#	145365
#	159052
#	172922
#
# Disc length: 2498
#
# Revision: 2
# Processed by: cddbd v1.5.1PL0 Copyright (c) Steve Scherf et al.
# Submitted via: dBpowerAMP V4.0
# Normalized: r0:TSWAP
#
DISCID=9f09c00e
DTITLE=Various Artist - Ladies Sing The Blues
DYEAR=1997
DGENRE=Blues
TTITLE0=Billie Holiday - Night And Day
TTITLE1=Ella Fitzgerald - Lover, Come Back To Me
TTITLE2=Ella Fitzgerald - All Or Nothing At All
TTITLE3=Judy Garland - Fly Me To The Moon
TTITLE4=Lena Horne - The Lady Is A Tramp
TTITLE5=Billie Holiday - What A Little Moonlight Can Do
TTITLE6=Billie Holiday - When Your Lover Has Gone
TTITLE7=Judy Garland - The Man That Got Away
TTITLE8=Bessie Smith - Take Me For A Buggy Ride
TTITLE9=Ella Fitzgerald and Louis Armstrong - A Fine Romance
TTITLE10=Billie Holiday - I Got It Bad (And That Ain't Good)
TTITLE11=Lena Horne - Mad About The Boy
TTITLE12=Billie Holiday - Georgia On My Mind
TTITLE13=Judy Garland - Almost Like Being in Love (Medley) This Can't Be Love (Medley)
EXTD=Ian Baker
EXTT0=
EXTT1=
EXTT2=
EXTT3=
EXTT4=
EXTT5=
EXTT6=
EXTT7=
EXTT8=
EXTT9=
EXTT10=
EXTT11=
EXTT12=
EXTT13=
PLAYORDER=
